<svg width="500" height="500" viewBox="0 0 500 500" fill="none" xmlns="http://www.w3.org/2000/svg">
<path d="M186.452 210.09C237.423 185.713 277.313 144.345 300.213 92.6354C285.439 77.1225 266.232 66.0419 245.548 59.3935L234.468 55.6999C233.729 57.1774 232.99 59.3936 232.99 60.871C215.261 111.103 179.065 151.732 130.31 174.632C96.3291 190.884 71.2129 220.432 59.3935 255.89L55.7 266.971C57.1774 267.71 59.3936 268.448 60.871 268.448C74.9065 273.619 88.942 280.268 102.239 288.393C120.706 255.152 150.255 227.081 186.452 210.09Z" fill="#7000FF"/>
<path d="M400.677 213.045C373.345 254.413 335.671 287.655 289.132 309.816C251.458 327.545 222.648 360.787 209.352 400.677L205.658 413.235C219.694 425.793 236.684 435.397 255.152 441.307L266.232 445C266.971 443.523 267.71 441.306 267.71 439.829C285.439 389.597 321.636 348.968 370.39 326.068C404.371 309.816 430.226 280.268 441.306 244.81L445 233.729C429.487 229.297 414.713 221.91 400.677 213.045Z" fill="#7000FF"/>
<path d="M176.11 374.823C194.578 330.5 228.558 294.303 272.142 273.619C312.032 254.413 345.274 224.864 368.174 188.668C351.184 172.416 337.148 153.948 326.807 131.787C299.474 182.019 256.629 222.648 204.181 247.764C173.894 261.8 149.516 286.177 134.742 315.726C150.994 331.239 164.29 350.445 174.632 371.868C174.632 371.868 175.371 373.345 176.11 374.823Z" fill="#7000FF"/>
</svg>
